<svg width="100" height="32" viewBox="0 0 100 32" fill="none" xmlns="http://www.w3.org/2000/svg">
<rect width="99.9994" height="31.3724" rx="15.6862" fill="#372D3B"/>
<path d="M37.049 14.9883L33.8928 17.847L34.8383 22.1031C34.8883 22.3256 34.874 22.5585 34.7972 22.7726C34.7204 22.9867 34.5845 23.1726 34.4065 23.307C34.2285 23.4414 34.0162 23.5183 33.7963 23.5282C33.5764 23.5381 33.3585 23.4804 33.1699 23.3625L29.5932 21.111L26.0242 23.3625C25.8357 23.4804 25.6178 23.5381 25.3979 23.5282C25.178 23.5183 24.9657 23.4414 24.7877 23.307C24.6096 23.1726 24.4737 22.9867 24.3969 22.7726C24.3201 22.5585 24.3059 22.3256 24.3559 22.1031L25.2999 17.8513L22.1431 14.9883C21.9761 14.8388 21.8554 14.6415 21.796 14.4211C21.7367 14.2008 21.7413 13.9671 21.8094 13.7494C21.8775 13.5318 22.006 13.3398 22.1788 13.1977C22.3515 13.0555 22.5609 12.9694 22.7806 12.9503L26.9417 12.5762L28.5659 8.55545C28.6507 8.34447 28.7938 8.16425 28.9771 8.03749C29.1604 7.91073 29.3758 7.84309 29.596 7.84309C29.8163 7.84309 30.0317 7.91073 30.215 8.03749C30.3983 8.16425 30.5413 8.34447 30.6262 8.55545L32.2553 12.5762L36.4149 12.9503C36.6347 12.9694 36.844 13.0555 37.0168 13.1977C37.1896 13.3398 37.3181 13.5318 37.3862 13.7494C37.4542 13.9671 37.4589 14.2008 37.3995 14.4211C37.3402 14.6415 37.2194 14.8388 37.0525 14.9883H37.049Z" fill="#FBF8FC"/>
<path d="M53.4696 23.7242C52.5413 23.7242 51.7103 23.5502 50.9769 23.202C50.2435 22.8492 49.6609 22.3665 49.2292 21.7537C48.8021 21.141 48.5747 20.44 48.5468 19.6509H51.0535C51.0999 20.2358 51.3529 20.7139 51.8125 21.0853C52.272 21.452 52.8244 21.6354 53.4696 21.6354C53.9756 21.6354 54.4259 21.5193 54.8205 21.2872C55.215 21.0551 55.526 20.7325 55.7535 20.3194C55.981 19.9062 56.0924 19.4351 56.0877 18.9059C56.0924 18.3674 55.9786 17.8893 55.7465 17.4715C55.5144 17.0537 55.1965 16.7265 54.7926 16.4897C54.3888 16.2483 53.9246 16.1276 53.4 16.1276C52.973 16.123 52.5529 16.2019 52.1397 16.3644C51.7266 16.5269 51.3993 16.7404 51.1579 17.005L48.8253 16.622L49.5704 9.26912H57.8424V11.4276H51.708L51.2972 15.2085H51.3808C51.6453 14.8975 52.019 14.6399 52.5018 14.4356C52.9846 14.2268 53.5137 14.1223 54.0894 14.1223C54.9528 14.1223 55.7233 14.3266 56.4011 14.735C57.0788 15.1389 57.6126 15.6959 58.0025 16.4062C58.3925 17.1164 58.5874 17.9287 58.5874 18.8432C58.5874 19.7855 58.3693 20.6257 57.9329 21.3638C57.5012 22.0972 56.9001 22.6752 56.1295 23.0976C55.3636 23.5154 54.477 23.7242 53.4696 23.7242ZM62.0219 23.6825C61.5995 23.6825 61.2374 23.5339 60.9357 23.2368C60.634 22.9398 60.4854 22.5777 60.4901 22.1506C60.4854 21.7328 60.634 21.3754 60.9357 21.0783C61.2374 20.7812 61.5995 20.6327 62.0219 20.6327C62.4304 20.6327 62.7855 20.7812 63.0873 21.0783C63.3936 21.3754 63.5491 21.7328 63.5538 22.1506C63.5491 22.4338 63.4749 22.6914 63.331 22.9235C63.1917 23.1556 63.006 23.3413 62.7739 23.4805C62.5465 23.6152 62.2958 23.6825 62.0219 23.6825ZM70.844 23.8008C69.6974 23.8008 68.7133 23.5107 67.8917 22.9305C67.0747 22.3456 66.4457 21.5031 66.0047 20.4029C65.5684 19.2981 65.3502 17.9682 65.3502 16.4131C65.3549 14.8581 65.5754 13.5351 66.0117 12.4442C66.4527 11.3487 67.0817 10.5132 67.8987 9.93756C68.7203 9.36196 69.7021 9.07415 70.844 9.07415C71.9859 9.07415 72.9677 9.36196 73.7893 9.93756C74.611 10.5132 75.24 11.3487 75.6763 12.4442C76.1173 13.5397 76.3378 14.8627 76.3378 16.4131C76.3378 17.9728 76.1173 19.3051 75.6763 20.4099C75.24 21.51 74.611 22.3502 73.7893 22.9305C72.9723 23.5107 71.9906 23.8008 70.844 23.8008ZM70.844 21.6214C71.7353 21.6214 72.4385 21.1828 72.9538 20.3054C73.4737 19.4234 73.7336 18.126 73.7336 16.4131C73.7336 15.2805 73.6153 14.3289 73.3785 13.5583C73.1418 12.7877 72.8076 12.2075 72.3759 11.8176C71.9442 11.423 71.4335 11.2257 70.844 11.2257C69.9574 11.2257 69.2564 11.6667 68.7412 12.5487C68.2259 13.426 67.966 14.7142 67.9613 16.4131C67.9567 17.5504 68.0704 18.5067 68.3025 19.2819C68.5393 20.0571 68.8735 20.642 69.3052 21.0365C69.7369 21.4265 70.2498 21.6214 70.844 21.6214Z" fill="#FBF8FC"/>
</svg>
